<svg width="20" height="14" viewBox="0 0 20 14" fill="none" xmlns="http://www.w3.org/2000/svg">
<path d="M10 0.333344C3.33333 0.333344 0.833328 7.00001 0.833328 7.00001C0.833328 7.00001 3.33333 13.6667 10 13.6667C16.6667 13.6667 19.1667 7.00001 19.1667 7.00001C19.1667 7.00001 16.6667 0.333344 10 0.333344ZM10 2.00001C14.3967 2.00001 16.6205 5.55592 17.3405 6.99676C16.6197 8.42759 14.3792 12 10 12C5.60333 12 3.3795 8.4441 2.6595 7.00327C3.38117 5.57243 5.62083 2.00001 10 2.00001ZM10 3.66668C8.15916 3.66668 6.66666 5.15918 6.66666 7.00001C6.66666 8.84084 8.15916 10.3333 10 10.3333C11.8408 10.3333 13.3333 8.84084 13.3333 7.00001C13.3333 5.15918 11.8408 3.66668 10 3.66668ZM10 5.33334C10.9208 5.33334 11.6667 6.07918 11.6667 7.00001C11.6667 7.92084 10.9208 8.66668 10 8.66668C9.07916 8.66668 8.33333 7.92084 8.33333 7.00001C8.33333 6.07918 9.07916 5.33334 10 5.33334Z" fill="#A0A0A0"/>
</svg>
